<?xml version="1.0" encoding="utf-8"?>
<!-- Generator: Adobe Illustrator 21.0.2, SVG Export Plug-In . SVG Version: 6.00 Build 0)  -->
<svg version="1.1" id="Layer_1" xmlns="http://www.w3.org/2000/svg" xmlns:xlink="http://www.w3.org/1999/xlink" x="0px" y="0px"
	 viewBox="0 0 512 512" style="enable-background:new 0 0 512 512;" xml:space="preserve">
<g>
	<g>
		<circle cx="110.2" cy="394.6" r="17.3"/>
	</g>
</g>
<g>
	<g>
		<path d="M501.6,301.3c0-8.5-2.6-16.4-7.1-22.9C505.1,271,512,258.8,512,245c0-22.4-18.2-40.6-40.6-40.6H364.7l6.8-15.2
			c9.9-22.2,14.9-45.7,15-70c0,0,0.1-29.6,0.1-29.8c0-23-18.7-41.7-41.7-41.7c-17.1,0-32.3,10.2-38.7,26.1c-0.3,0.7-10,29.3-10,29.3
			c-8.8,25.4-24.3,48-44.9,65.2l-49.5,41.4h-28.6v-13.1c0-13.7-11.2-24.9-24.9-24.9H24.9C11.2,171.9,0,183.1,0,196.8v242.5
			c0,13.7,11.2,24.9,24.9,24.9h123.3c13.7,0,24.9-11.2,24.9-24.9v-19.5h15.6l15.5,7.5c36.7,17.7,77.6,27.1,118.4,27.1h56.7h17.3
			h43.6c22.4,0,40.6-18.2,40.6-40.6c0-8.5-2.6-16.4-7.1-22.9c10.6-7.3,17.5-19.5,17.5-33.4c0-8.5-2.6-16.4-7.1-22.9
			C494.7,327.3,501.6,315.1,501.6,301.3z M148.2,439.3H24.9V196.8h123.3L148.2,439.3C148.2,439.3,148.2,439.3,148.2,439.3z
			 M471.4,260.7h-17.7c-6.9,0-12.4,5.6-12.4,12.4c0,6.9,5.6,12.4,12.4,12.4h7.3c8.7,0,15.7,7,15.7,15.7s-7,15.7-15.7,15.7h-17.7
			c-6.9,0-12.4,5.6-12.4,12.4s5.6,12.4,12.4,12.4h7.3c8.7,0,15.7,7,15.7,15.7c0,8.7-7,15.7-15.7,15.7H433c-6.9,0-12.4,5.6-12.4,12.4
			s5.6,12.4,12.4,12.4h7.3c8.7,0,15.7,7,15.7,15.7c0,8.7-7,15.7-15.7,15.7h-43.6h-17.3h-56.7c-37,0-74.2-8.5-107.5-24.6l-18.1-8.7
			c-1.7-0.8-3.5-1.2-5.4-1.2h-18.5V234.7h33.1c2.9,0,5.7-1,8-2.9l53-44.3c24.1-20.2,42.2-46.5,52.5-76.2c0,0,9.9-28.8,10-29
			c2.8-5.9,8.6-9.6,15.2-9.6c9.3,0,16.8,7.5,16.8,16.8c0,0.2-0.1,29.7-0.1,29.7c0,20.8-4.4,40.9-12.8,59.9l-14.5,32.5
			c-1.3,2.8-1.4,5.9-0.5,8.7c0.1,0.2,2.8,9,11.9,9h125.7c8.7,0,15.7,7,15.7,15.7C487.1,253.6,480.1,260.7,471.4,260.7z"/>
	</g>
</g>
</svg>
