<?xml version="1.0" encoding="utf-8"?>
<!-- Generator: Adobe Illustrator 21.0.2, SVG Export Plug-In . SVG Version: 6.00 Build 0)  -->
<svg version="1.1" id="Capa_1" xmlns="http://www.w3.org/2000/svg" xmlns:xlink="http://www.w3.org/1999/xlink" x="0px" y="0px"
	 viewBox="0 0 60 60" style="enable-background:new 0 0 60 60;" xml:space="preserve">
<g>
	<path d="M50,54h-5v-6c0-7.6-4.1-14.4-10.7-18C40.9,26.4,45,19.6,45,12V6h5c1.7,0,3-1.3,3-3s-1.3-3-3-3H10C8.3,0,7,1.3,7,3
		s1.3,3,3,3h5v6c0,7.6,4.1,14.4,10.7,18C19.1,33.6,15,40.4,15,48v6h-5c-1.7,0-3,1.3-3,3s1.3,3,3,3h40c1.7,0,3-1.3,3-3S51.7,54,50,54
		z M10,4C9.4,4,9,3.6,9,3s0.4-1,1-1h40c0.6,0,1,0.4,1,1s-0.4,1-1,1h-5H15H10z M17,12V6h26v6c0,7.4-4.4,14.1-11.2,17h-3.6
		C21.4,26.1,17,19.4,17,12z M17,48c0-7.4,4.4-14.1,11.2-17h3.6C38.6,33.9,43,40.6,43,48v6c0-0.6-0.4-1-1-1s-1,0.4-1,1h-2
		c0-0.6-0.4-1-1-1s-1,0.4-1,1h-2c0-0.6-0.4-1-1-1s-1,0.4-1,1h-2c0-0.6-0.4-1-1-1s-1,0.4-1,1h-2c0-0.6-0.4-1-1-1s-1,0.4-1,1h-2
		c0-0.6-0.4-1-1-1s-1,0.4-1,1h-2c0-0.6-0.4-1-1-1s-1,0.4-1,1V48z M50,58H10c-0.6,0-1-0.4-1-1s0.4-1,1-1h5h30h5c0.6,0,1,0.4,1,1
		S50.6,58,50,58z"/>
	<circle cx="20" cy="52" r="1"/>
	<circle cx="24" cy="52" r="1"/>
	<circle cx="28" cy="52" r="1"/>
	<circle cx="32" cy="52" r="1"/>
	<circle cx="36" cy="52" r="1"/>
	<circle cx="40" cy="52" r="1"/>
	<circle cx="22" cy="50" r="1"/>
	<circle cx="26" cy="50" r="1"/>
	<circle cx="30" cy="33" r="1"/>
	<circle cx="24" cy="22" r="1"/>
	<circle cx="28" cy="22" r="1"/>
	<circle cx="32" cy="22" r="1"/>
	<circle cx="36" cy="22" r="1"/>
	<circle cx="34" cy="20" r="1"/>
	<circle cx="36" cy="18" r="1"/>
	<circle cx="26" cy="20" r="1"/>
	<circle cx="30" cy="20" r="1"/>
	<circle cx="24" cy="18" r="1"/>
	<circle cx="26" cy="24" r="1"/>
	<circle cx="28" cy="26" r="1"/>
	<circle cx="32" cy="26" r="1"/>
	<circle cx="30" cy="24" r="1"/>
	<circle cx="34" cy="24" r="1"/>
	<circle cx="30" cy="36" r="1"/>
	<circle cx="30" cy="39" r="1"/>
	<circle cx="30" cy="42" r="1"/>
	<circle cx="30" cy="45" r="1"/>
	<circle cx="30" cy="48" r="1"/>
	<circle cx="34" cy="50" r="1"/>
	<circle cx="38" cy="50" r="1"/>
</g>
</svg>
